<svg width="28" height="30" viewBox="0 0 28 30" fill="none" xmlns="http://www.w3.org/2000/svg">
<path d="M1.69629 28.2116C1.69629 28.2116 2.44236 26.5796 3.98954 25.8669C4.44819 24.7435 6.6864 21.123 11.5022 22.3987C13.3919 21.735 17.2904 20.6116 19.7579 24.3354C21.1889 24.4878 24.4851 23.8186 25.806 28.2579C13.0769 28.3585 1.69629 28.2116 1.69629 28.2116Z" fill="white"/>
<path d="M6.14551 13.7525C6.14551 13.7525 12.0142 16.4131 13.4087 21.8241C14.9033 12.1927 17.885 10.7826 21.2679 7.85547" stroke="white" stroke-width="1.75" stroke-linecap="round" stroke-linejoin="round"/>
<path fill-rule="evenodd" clip-rule="evenodd" d="M14.8791 13.7552C17.1943 15.5383 20.8827 15.7097 23.2493 13.4664C23.3021 13.4163 23.3537 13.365 23.4056 13.3132C23.4327 13.2863 23.4599 13.2591 23.4875 13.232C27.2907 9.35004 28.5932 0.529213 27.758 0.0670974C27.3592 -0.153586 26.6031 0.195777 25.4258 0.739748C24.1379 1.33487 22.3458 2.16291 19.9659 2.73227C13.0991 4.28508 12.3379 7.87064 12.8485 10.5245C13.0069 11.3576 13.3566 12.0967 13.8427 12.7255C14.6341 11.0663 15.3988 9.7643 16.334 8.6884C17.5279 7.31479 18.964 6.34915 20.9891 5.44075C21.3356 5.28528 21.7415 5.44282 21.8955 5.79262C22.0496 6.14243 21.8935 6.55204 21.5469 6.70751C19.6415 7.56226 18.3909 8.42395 17.3665 9.60259C16.4722 10.6314 15.7239 11.931 14.8791 13.7552Z" fill="white"/>
<path fill-rule="evenodd" clip-rule="evenodd" d="M2.49711 14.8538C4.94226 18.2537 7.56655 17.7438 8.89145 17.0757C9.51944 16.7562 10.0266 16.2377 10.3401 15.6004C8.80355 13.9824 7.20734 13.1643 5.94251 12.7388C5.5827 12.6177 5.38824 12.2252 5.50818 11.8621C5.62812 11.4989 6.01703 11.3026 6.37684 11.4237C7.66805 11.8581 9.2423 12.6461 10.7857 14.0976C10.8182 13.8417 10.8303 13.5828 10.8215 13.3233C10.7978 12.6239 10.623 11.9382 10.3098 11.3155C9.41176 9.60966 7.74726 9.14469 5.74007 9.06837C3.98417 9.06837 2.60737 8.61291 1.60544 8.28146C1.01815 8.08719 0.559667 7.93552 0.22912 7.94315C-0.665354 7.9638 1.26363 12.7737 2.49711 14.8538Z" fill="white"/>
<path fill-rule="evenodd" clip-rule="evenodd" d="M0 28.9999C0 28.5752 0.342782 28.231 0.765625 28.231H27.2344C27.6572 28.231 28 28.5752 28 28.9999C28 29.4246 27.6572 29.7688 27.2344 29.7688H0.765625C0.342782 29.7688 0 29.4246 0 28.9999Z" fill="white"/>
</svg>
