<svg width="34" height="28" viewBox="0 0 34 28" fill="none" xmlns="http://www.w3.org/2000/svg">
<path d="M22.4422 1.07232L1.25293 1.07227V19.263L22.4422 19.263V1.07232Z" fill="white" stroke="white" stroke-width="2" stroke-linecap="round" stroke-linejoin="round"/>
<path d="M22.4424 8.06836H28.0395L32.6705 12.2662V19.2627H22.4424V8.06836Z" stroke="white" stroke-width="2" stroke-linecap="round" stroke-linejoin="round"/>
<path d="M7.75017 26.2591C9.68218 26.2591 11.2484 24.6929 11.2484 22.7609C11.2484 20.8289 9.68218 19.2627 7.75017 19.2627C5.81816 19.2627 4.25195 20.8289 4.25195 22.7609C4.25195 24.6929 5.81816 26.2591 7.75017 26.2591Z" stroke="white" stroke-width="2" stroke-linecap="round" stroke-linejoin="round"/>
<path d="M25.9406 26.2591C27.8726 26.2591 29.4388 24.6929 29.4388 22.7609C29.4388 20.8289 27.8726 19.2627 25.9406 19.2627C24.0086 19.2627 22.4424 20.8289 22.4424 22.7609C22.4424 24.6929 24.0086 26.2591 25.9406 26.2591Z" stroke="white" stroke-width="2" stroke-linecap="round" stroke-linejoin="round"/>
</svg>
