<svg width="27" height="27" viewBox="0 0 27 27" fill="none" xmlns="http://www.w3.org/2000/svg">
<g clip-path="url(#clip0)">
<path d="M26.1359 12.0342H21.251V13.4971C22.619 13.4971 23.9864 13.4955 25.3544 13.4922C25.5527 13.4917 25.6013 13.5421 25.6008 13.7475C25.5939 16.8088 25.5939 19.87 25.6008 22.9307C25.6013 23.1356 25.5527 23.1872 25.3544 23.1861C23.9864 23.1773 22.619 23.18 21.251 23.1806V24.6435H26.1359C26.6129 24.6435 27 24.2425 27 23.7482V12.9295C27 12.4353 26.6129 12.0342 26.1359 12.0342Z" fill="#FEFEFE"/>
<path d="M23.9965 15.5994C23.6644 15.3106 23.2398 15.3824 22.9146 15.7758C22.3604 16.4459 21.8051 17.1144 21.251 17.7845V20.0633C22.1705 18.9527 23.0906 17.8426 24.0102 16.7314C24.3338 16.3407 24.3275 15.887 23.9965 15.5994Z" fill="#FEFEFE"/>
<path d="M14.831 23.7481V12.9293C14.831 12.4351 15.218 12.034 15.695 12.034H21.2505V0.895306C21.2505 0.40108 20.8634 0 20.3864 0H0.864042C0.387074 0 0 0.40108 0 0.895306V4.18778C0.638778 4.18613 1.27756 4.18558 1.91686 4.18832C2.35946 4.18997 2.66986 4.48913 2.67673 4.91268C2.68361 5.32526 2.36369 5.66169 1.93643 5.66662C1.2913 5.67429 0.645652 5.67484 0.00052879 5.66772V7.96516C0.639307 7.96351 1.27808 7.96296 1.91739 7.9657C2.35999 7.96735 2.67039 8.26651 2.67726 8.69006C2.68414 9.10264 2.36422 9.43907 1.93696 9.444C1.29183 9.45167 0.646181 9.45222 0.00105758 9.4451V11.7973C0.639835 11.7957 1.27861 11.7951 1.91792 11.7979C2.36052 11.7995 2.67092 12.0987 2.67779 12.5222C2.68467 12.9348 2.36475 13.2712 1.93749 13.2762C1.29236 13.2838 0.64671 13.2844 0.00158637 13.2773V15.5884C0.640364 15.5868 1.27914 15.5862 1.91845 15.589C2.36105 15.5906 2.67145 15.8898 2.67832 16.3133C2.68519 16.7259 2.36528 17.0623 1.93801 17.0673C1.29289 17.0749 0.647239 17.0755 0.00211516 17.0683V19.4633C0.640893 19.4617 1.27967 19.4611 1.91898 19.4639C2.36157 19.4655 2.67197 19.7647 2.67885 20.1882C2.68572 20.6008 2.3658 20.9372 1.93854 20.9422C1.29342 20.9498 0.647767 20.9504 0.00264395 20.9433V26.1047C0.00264395 26.5989 0.389718 27 0.866686 27H20.3891C20.866 27 21.2531 26.5989 21.2531 26.1047V24.6439H15.695C15.218 24.6434 14.831 24.2429 14.831 23.7481ZM10.6139 7.83639C8.67215 7.83639 6.72991 7.83091 4.78819 7.84352C4.54389 7.84516 4.5037 7.76955 4.50793 7.54052C4.52168 6.75808 4.51904 5.97455 4.50899 5.19212C4.50687 5.00199 4.53384 4.92912 4.74536 4.92966C8.66422 4.93733 12.5831 4.93733 16.5019 4.92966C16.7082 4.92912 16.7441 4.99322 16.7415 5.18883C16.7304 5.98989 16.7283 6.79096 16.7425 7.59202C16.7462 7.80681 16.6812 7.84133 16.4919 7.84078C14.5327 7.83365 12.573 7.83639 10.6139 7.83639Z" fill="#FEFEFE"/>
<path d="M20.8957 23.1807C19.4273 23.1807 17.9588 23.1763 16.4904 23.1856C16.2831 23.1873 16.2302 23.1314 16.2308 22.9166C16.2376 19.8647 16.2376 16.8127 16.2308 13.7603C16.2302 13.5455 16.2831 13.4907 16.4904 13.4912C18.0773 13.4951 19.6642 13.4967 21.2511 13.4962V12.0332H15.6951C15.2181 12.0332 14.8311 12.4343 14.8311 12.9285V23.7472C14.8311 24.2415 15.2181 24.6426 15.6951 24.6426H21.2506V23.1796C21.1321 23.1807 21.0142 23.1807 20.8957 23.1807Z" fill="#FEFEFE"/>
<path d="M20.1749 19.0898C20.048 19.2448 19.9793 19.2377 19.8613 19.087C19.579 18.727 19.2871 18.3747 18.9899 18.0279C18.6954 17.6838 18.2681 17.6416 17.9609 17.9128C17.6436 18.1928 17.6066 18.6257 17.8953 18.9813C18.4151 19.6218 18.9476 20.2514 19.4759 20.8848C19.6213 21.059 19.8053 21.1521 20.0475 21.1434C20.3314 21.1565 20.5107 20.9571 20.6852 20.7467C20.874 20.5187 21.0622 20.2914 21.251 20.0634V17.7846C20.8914 18.2191 20.5324 18.6536 20.1749 19.0898Z" fill="#FEFEFE"/>
</g>
<defs>
<clipPath id="clip0">
<rect width="27" height="27" fill="white"/>
</clipPath>
</defs>
</svg>
