<svg width="35" height="27" viewBox="0 0 35 27" fill="none" xmlns="http://www.w3.org/2000/svg">
<path d="M32.9446 6.73698H16.9703H1.06192C0.475189 6.73698 0 6.35316 0 5.8798V0.857715C0 0.383813 0.475189 0 1.06192 0H32.9446C33.5307 0 34.0065 0.383813 34.0065 0.857715V5.8798C34.0059 6.35316 33.5307 6.73698 32.9446 6.73698Z" fill="white"/>
<path d="M29.4376 7.8916H4.56835C3.92344 7.8916 3.40039 8.45787 3.40039 9.15605V25.3307C3.40039 26.0289 3.92344 26.5952 4.56835 26.5952H29.4376C30.0825 26.5952 30.6056 26.0289 30.6056 25.3307V9.15605C30.6056 8.45787 30.0832 7.8916 29.4376 7.8916ZM24.432 14.2756C24.432 14.6236 24.1715 14.9057 23.85 14.9057H10.8152C10.4937 14.9057 10.2331 14.6236 10.2331 14.2756V11.5762C10.2331 11.2281 10.4937 10.9461 10.8152 10.9461H23.85C24.1715 10.9461 24.432 11.2281 24.432 11.5762V14.2756Z" fill="white"/>
</svg>
