<svg width="35" height="32" viewBox="0 0 35 32" fill="none" xmlns="http://www.w3.org/2000/svg">
<path d="M1 14.7608L5.37781 6.40312L14.8498 1.50395C16.1472 0.831356 17.6914 0.831356 18.9888 1.50793L27.6649 6.00514L33.2697 14.7608" stroke="white" stroke-width="2" stroke-miterlimit="10" stroke-linecap="round"/>
<path d="M24.4053 16.5513H9.71973L16.9949 21.2713L24.4053 16.5513Z" fill="white"/>
<path d="M9.74805 27.297H24.0874L16.9874 22.6924L9.74805 27.297Z" fill="white"/>
<path d="M25.7708 26.9706V17.1006L18.0938 21.9878L25.7708 26.9706Z" fill="white"/>
<path d="M30.1917 14.4544L26.2317 8.34935C25.9133 7.85983 25.4676 7.46185 24.9462 7.19918L18.4591 3.95562C17.5358 3.49396 16.4493 3.49396 15.522 3.95562L9.09458 7.17132C8.53342 7.44991 8.0638 7.88769 7.74542 8.42497L4.12377 14.4942C3.8213 15.0036 3.66211 15.5847 3.66211 16.1737V30.2822H30.725V16.2414C30.721 15.6086 30.5379 14.9877 30.1917 14.4544ZM16.9906 7.19918C20.5724 7.19918 19.7764 13.3928 19.7764 13.3928H14.2047C14.2047 13.3928 13.4087 7.19918 16.9906 7.19918ZM26.964 28.4913H7.63796V15.3578H26.964V28.4913Z" fill="white"/>
<path d="M8.83203 17.3989V26.465L15.8843 21.9757L8.83203 17.3989Z" fill="white"/>
<path d="M1.05859 30.5273H33.2634" stroke="white" stroke-width="2" stroke-miterlimit="10" stroke-linecap="round"/>
</svg>
