<svg width="28" height="28" viewBox="0 0 28 28" fill="none" xmlns="http://www.w3.org/2000/svg">
<path d="M0 0.000555045H12.2762V12.2769H0V0.000555045ZM2.45505 9.82141H9.82086V2.47468H2.45505V9.82141Z" fill="white"/>
<path d="M7.36533 7.36621H4.91016V4.9107H7.36533V7.36621Z" fill="white"/>
<path d="M22.0974 2.45508H19.6416V-0.000170469H22.0974V2.45508Z" fill="white"/>
<path d="M27.0075 2.45508H24.5518V-0.000170469H27.0075V2.45508Z" fill="white"/>
<path d="M24.5525 9.82141H22.0975V12.2769H14.7314V0.000555045H17.1869V7.36636H19.6417V4.91085H27.0077V12.2769H24.5525V9.82141Z" fill="white"/>
<path d="M0 14.7314H12.2762V27.0078H0V14.7314ZM2.45505 24.5528H9.82086V17.187H2.45505V24.5528Z" fill="white"/>
<path d="M7.36533 22.0972H4.91016V19.6418H7.36533V22.0972Z" fill="white"/>
<path d="M14.7314 27.0078V14.7314H27.008V27.0078H14.7314ZM24.5525 17.187H17.1869V24.5528H24.5525V17.187V17.187Z" fill="white"/>
<path d="M22.0974 22.0972H19.6416V19.6418H22.0974V22.0972Z" fill="white"/>
</svg>
